<?xml version="1.0" encoding="UTF-8"?>
<svg id="Layer_1" data-name="Layer 1" xmlns="http://www.w3.org/2000/svg" viewBox="0 0 491 371.5">
  <defs>
    <style>
      .cls-1 {
        fill: #fff;
      }

      .cls-2 {
        fill: #157a99;
      }

      .cls-3 {
        fill: #105267;
      }

      .cls-4 {
        fill: #18a1cc;
      }

      .cls-5 {
        fill: #b3c6cd;
        opacity: .5;
      }
    </style>
  </defs>
  <path class="cls-3" d="M463.62,171.57s-97.72-111.41-168.84-64.17c-71.11,47.24-45.81,157.51,196.21,206.37,0,0-229.15,70.84-339.88-41.41,0,0-.78,49.69,76.93,99.14,0,0-208.42-53.89-188.42-206.12C59.62,13.16,238.81,12.41,278.77,31.86c39.97,19.45,98.8,15.13,184.85,139.71Z"/>
  <path class="cls-2" d="M228.04,371.5c-77.71-49.44-76.93-99.14-76.93-99.14,110.73,112.24,339.88,41.41,339.88,41.41,0,0,0,0-.02,0-2.56-.05-334.08-7.58-355.26-136.06,0,0-26.15,7.47-12.82,90.22-47.47-52.1-28.54-159.52,82.35-194.25l-12.53,29.27s77-39.87,118.52-33.56l-22.51,9.21s99.09-15.94,174.89,92.96C377.56,46.99,318.74,51.31,278.77,31.86,238.81,12.4,59.62,13.16,39.61,165.39c-20,152.22,188.43,206.12,188.43,206.12Z"/>
  <path class="cls-4" d="M38.12,88.96c-6.37,6.55-11.89,14.02-16.33,22.53-44.51,85.28-8.08,175.39-1.79,190.26-3.98-19.28-7.24-45.36-5-76,1.57-21.56,5.49-40.2,9.77-55.24-11.77,183.71,203.28,200.99,203.28,200.99,0,0-215.99-78.08-152.83-212.93C120.97,60.86,203.33,47.71,245.24,47.88c14.85,1.43,24.54,2.67,26.02,2.05-6.99,2.93-17.37,16.17-17.37,16.17,62.86-26.4,101.39,4.5,101.39,4.5l-20.08,5.8c63.82-10.04,128.42,95.16,128.42,95.16C353.72-63.97,130.26-21.69,38.12,88.96Z"/>
  <path class="cls-2" d="M227.31,371.03c.5-.75-9.82-6.88-25.1-20.66-15.75-14.2-29.76-27.11-37.65-47.47-3.6-9.3-4.9-17.52-5.44-22.92-4.21-6-9.6-12.61-12.57-11.46-4.15,1.61-2.81,18.1,1.64,31.1,6.74,19.71,20.62,31.47,36.01,44.2,21,17.36,42.41,28.27,43.11,27.21Z"/>
  <path id="P" class="cls-1" d="M206.83,167.45l-60.37,.04-6.19,55.44h-15.97l-1.88,18.46,15.91-.03-3.71,34.42,32.65-.03,9.32-85.56h11.7c7.46-.02,12.66,.9,12.51,11.85-.3,19.84-6.41,20.85-15.17,20.85h-7.9l-1.98,18.81,19.94-.03c20.72-.38,35.21-6.34,37.61-41.62,1.87-27.35-18.67-32.6-26.47-32.6h0Z"/>
  <path class="cls-1" d="M264.96,190.63c-3.08-7.89-4.67-15.67-4.89-23.21l-21.72,.02-2.54,23.2,33.22-.02h-4.07Z"/>
  <path class="cls-1" d="M269.03,190.63c-.34,.88-.68,1.79-1.03,2.71,.35-.92,.7-1.82,1.03-2.71Z"/>
  <path class="cls-1" d="M267.12,195.65c.05-.13,.1-.26,.15-.39-12.33,32.27-31.22,81.03-31.22,81.03l33.49-.02,34.1-85.68-14.28,35.88c-10.11-10.23-17.44-20.59-22.24-30.81Z"/>
  <path class="cls-5" d="M327.5,190.58l9.25-23.22-76.67,.06c.22,7.54,1.81,15.32,4.89,23.21h4.07c-.62,1.62-1.26,3.3-1.92,5.02,4.79,10.22,12.13,20.58,22.24,30.81l14.28-35.88h23.86Z"/>
  <g id="A">
    <path class="cls-1" d="M311.68,245.45l-12.22,30.79,33.47-.05,5.09-14.08c-9.77-5.42-18.54-10.99-26.34-16.66Z"/>
    <path class="cls-5" d="M377.45,190.68l-3.42,32.1-18.04,.06-2.02,18.53,18.05-.02-3.78,34.53,32.62-.02,3.31-34.6,15.05-.02,1.98-18.52-15.22,.02,5.31-55.57-68.61,.18-30.99,78.1c7.8,5.67,16.57,11.24,26.34,16.66l25.84-71.43h13.59Z"/>
  </g>
  <path id="R" class="cls-5" d="M416.23,177.96c0-3.44,2.58-6.04,5.92-6.04,3.28-.01,5.89,2.59,5.89,6.03,0,3.49-2.59,6.08-5.88,6.08s-5.92-2.57-5.92-6.07h0Zm5.92,7.28c3.96,0,7.35-3.08,7.34-7.29,0-4.18-3.38-7.25-7.35-7.25-4.01,0-7.39,3.09-7.39,7.26,0,4.22,3.39,7.28,7.39,7.28h0Zm-1.55-6.71h1.47s2.22,3.63,2.22,3.63h1.42s-2.39-3.68-2.39-3.68c1.23-.15,2.17-.82,2.17-2.31,0-1.66-.98-2.39-2.97-2.39h-3.19s.01,8.4,.01,8.4h1.26v-3.64h0Zm0-1.07v-2.59h1.74c.89,0,1.82,.18,1.82,1.22,0,1.29-.96,1.37-2.03,1.37h-1.53Z"/>
  <path id="M" class="cls-1" d="M147.69,160.91c-.45,0-.83-.16-1.15-.48-.32-.32-.48-.71-.48-1.15v-39.12c0-.44,.16-.83,.48-1.15s.71-.48,1.15-.48h9.57c.81,0,1.41,.22,1.82,.67,.4,.45,.67,.77,.79,.97l8.78,14.54,8.78-14.54c.12-.2,.38-.52,.79-.97,.4-.44,1.01-.67,1.82-.67h9.57c.44,0,.83,.16,1.15,.48,.32,.32,.49,.71,.49,1.15v39.12c0,.45-.16,.83-.49,1.15s-.71,.48-1.15,.48h-10.96c-.44,0-.83-.16-1.15-.48-.32-.32-.48-.71-.48-1.15v-16.59l-4,6.54c-.2,.32-.47,.66-.82,1-.34,.34-.82,.51-1.42,.51h-4.24c-.61,0-1.08-.17-1.42-.51-.34-.34-.62-.68-.82-1l-4-6.54v16.59c0,.45-.16,.83-.48,1.15s-.71,.48-1.15,.48h-10.96Z"/>
  <path id="A-2" data-name="A" class="cls-1" d="M197.41,160.91c-.36,0-.68-.13-.94-.39-.26-.26-.39-.57-.39-.94,0-.16,.02-.3,.06-.42l13.51-38.64c.12-.44,.4-.89,.85-1.33s1.07-.67,1.88-.67h13.14c.81,0,1.43,.22,1.88,.67,.44,.45,.73,.89,.85,1.33l13.51,38.64c.04,.12,.06,.26,.06,.42,0,.36-.13,.68-.39,.94s-.58,.39-.94,.39h-11.21c-.77,0-1.32-.17-1.67-.51-.34-.34-.57-.68-.7-1l-1.45-4h-13.02l-1.45,4c-.12,.32-.34,.66-.67,1-.32,.34-.89,.51-1.7,.51h-11.2Zm18.11-17.32h6.84l-3.45-11.26-3.39,11.26Z"/>
  <path id="I" class="cls-5" d="M287.71,160.91c-.45,0-.83-.16-1.15-.48-.32-.32-.48-.71-.48-1.15v-39.12c0-.44,.16-.83,.48-1.15,.32-.32,.7-.48,1.15-.48h12.35c.44,0,.83,.16,1.15,.48,.32,.32,.48,.71,.48,1.15v39.12c0,.45-.16,.83-.48,1.15-.32,.32-.71,.48-1.15,.48h-12.35Z"/>
  <path id="B" class="cls-5" d="M311.51,160.91c-.44,0-.83-.16-1.15-.48-.32-.32-.48-.71-.48-1.15v-39.12c0-.44,.16-.83,.48-1.15,.32-.32,.71-.48,1.15-.48h20.11c3.88,0,7.04,.47,9.51,1.42s4.29,2.36,5.48,4.24,1.79,4.23,1.79,7.06c0,1.29-.27,2.45-.82,3.48s-1.19,1.89-1.94,2.57c-.75,.69-1.44,1.19-2.09,1.51,1.53,.65,2.88,1.77,4.03,3.36,1.15,1.6,1.73,3.4,1.73,5.42,0,3.03-.67,5.52-2,7.48-1.33,1.96-3.26,3.42-5.78,4.39-2.52,.97-5.62,1.45-9.3,1.45h-20.71Zm13.51-26.47h5.09c.89,0,1.52-.29,1.91-.88,.38-.59,.58-1.2,.58-1.85s-.19-1.27-.58-1.88-1.02-.91-1.91-.91h-5.09v5.51Zm0,16.05h5.63c1.01,0,1.72-.33,2.15-1,.42-.67,.64-1.32,.64-1.97,0-.73-.23-1.4-.7-2.03-.47-.63-1.16-.94-2.09-.94h-5.63v5.94Z"/>
  <path id="U" class="cls-5" d="M375.16,161.51c-3.87,0-7.3-.59-10.27-1.76-2.97-1.17-5.28-2.99-6.93-5.45-1.66-2.46-2.48-5.59-2.48-9.39v-24.77c0-.44,.16-.83,.48-1.15,.32-.32,.7-.48,1.15-.48h11.87c.44,0,.83,.16,1.15,.48,.32,.32,.48,.71,.48,1.15v24.53c0,1.49,.37,2.64,1.12,3.45,.75,.81,1.87,1.21,3.36,1.21s2.62-.4,3.36-1.21c.75-.81,1.12-1.96,1.12-3.45v-24.53c0-.44,.16-.83,.48-1.15,.32-.32,.71-.48,1.15-.48h11.87c.44,0,.83,.16,1.15,.48,.32,.32,.48,.71,.48,1.15v24.77c0,3.8-.83,6.93-2.48,9.39-1.66,2.46-3.96,4.28-6.9,5.45-2.95,1.17-6.34,1.76-10.18,1.76Z"/>
  <path class="cls-1" d="M262.03,148.49v-28.34c0-.44-.16-.83-.48-1.15-.32-.32-.71-.48-1.15-.48h-12.11c-.45,0-.83,.16-1.15,.48-.32,.32-.48,.71-.48,1.15v39.12c0,.45,.16,.83,.48,1.15,.32,.32,.7,.48,1.15,.48h11.95c.33-4.24,1.09-8.38,2.27-12.42h-.46Z"/>
  <path class="cls-5" d="M278.81,160.91c.44,0,.83-.16,1.15-.48,.32-.32,.48-.71,.48-1.15v-9.15c0-.44-.16-.83-.48-1.15-.32-.32-.71-.48-1.15-.48h-16.31c-1.18,4.03-1.94,8.18-2.27,12.42h18.58Z"/>
</svg>