<svg xmlns="http://www.w3.org/2000/svg" viewBox="0 0 22 22"><!--! Font Awesome Pro 6.1.2 by @fontawesome - https://fontawesome.com License - https://fontawesome.com/license (Commercial License) Copyright 2022 Fonticons, Inc. --><path d="M20.5,18.4l-4.7-4.7c1.1-1.6,1.6-3.6,1.3-5.7c-0.5-3.6-3.4-6.5-7-6.9c-5.3-0.7-9.8,3.8-9.1,9.1
  c0.5,3.6,3.4,6.5,6.9,7c2.1,0.3,4.1-0.2,5.7-1.3l4.7,4.7c0.6,0.6,1.6,0.6,2.2,0C21.2,20,21.2,19,20.5,18.4z M4.1,9.2
  c0-2.8,2.2-5,5-5s5,2.2,5,5s-2.2,5-5,5S4.1,11.9,4.1,9.2z" fill="#444b4d" /></svg>