<?xml version="1.0" standalone="no"?>
<svg xmlns:xlink="http://www.w3.org/1999/xlink" id="wave" style="transform:rotate(180deg); transition: 0.3s" viewBox="0 0 1440 490" version="1.1" xmlns="http://www.w3.org/2000/svg"><defs><linearGradient id="sw-gradient-0" x1="0" x2="0" y1="1" y2="0"><stop stop-color="rgba(21, 122, 153, 1)" offset="0%"/><stop stop-color="rgba(25, 162, 205, 1)" offset="100%"/></linearGradient></defs><path style="transform:translate(0, 0px); opacity:1" fill="url(#sw-gradient-0)" d="M0,49L60,89.8C120,131,240,212,360,277.7C480,343,600,392,720,359.3C840,327,960,212,1080,171.5C1200,131,1320,163,1440,204.2C1560,245,1680,294,1800,269.5C1920,245,2040,147,2160,147C2280,147,2400,245,2520,302.2C2640,359,2760,376,2880,392C3000,408,3120,425,3240,367.5C3360,310,3480,180,3600,130.7C3720,82,3840,114,3960,122.5C4080,131,4200,114,4320,114.3C4440,114,4560,131,4680,179.7C4800,229,4920,310,5040,318.5C5160,327,5280,261,5400,261.3C5520,261,5640,327,5760,367.5C5880,408,6000,425,6120,408.3C6240,392,6360,343,6480,269.5C6600,196,6720,98,6840,49C6960,0,7080,0,7200,0C7320,0,7440,0,7560,8.2C7680,16,7800,33,7920,89.8C8040,147,8160,245,8280,269.5C8400,294,8520,245,8580,220.5L8640,196L8640,490L8580,490C8520,490,8400,490,8280,490C8160,490,8040,490,7920,490C7800,490,7680,490,7560,490C7440,490,7320,490,7200,490C7080,490,6960,490,6840,490C6720,490,6600,490,6480,490C6360,490,6240,490,6120,490C6000,490,5880,490,5760,490C5640,490,5520,490,5400,490C5280,490,5160,490,5040,490C4920,490,4800,490,4680,490C4560,490,4440,490,4320,490C4200,490,4080,490,3960,490C3840,490,3720,490,3600,490C3480,490,3360,490,3240,490C3120,490,3000,490,2880,490C2760,490,2640,490,2520,490C2400,490,2280,490,2160,490C2040,490,1920,490,1800,490C1680,490,1560,490,1440,490C1320,490,1200,490,1080,490C960,490,840,490,720,490C600,490,480,490,360,490C240,490,120,490,60,490L0,490Z"/><defs><linearGradient id="sw-gradient-1" x1="0" x2="0" y1="1" y2="0"><stop stop-color="rgba(21, 122, 153, 0.8)" offset="0%"/><stop stop-color="rgba(21, 122, 153, 0.8)" offset="100%"/></linearGradient></defs><path style="transform:translate(0, 50px); opacity:0.9" fill="url(#sw-gradient-1)" d="M0,49L60,98C120,147,240,245,360,245C480,245,600,147,720,98C840,49,960,49,1080,89.8C1200,131,1320,212,1440,269.5C1560,327,1680,359,1800,343C1920,327,2040,261,2160,236.8C2280,212,2400,229,2520,269.5C2640,310,2760,376,2880,400.2C3000,425,3120,408,3240,367.5C3360,327,3480,261,3600,204.2C3720,147,3840,98,3960,114.3C4080,131,4200,212,4320,236.8C4440,261,4560,229,4680,236.8C4800,245,4920,294,5040,285.8C5160,278,5280,212,5400,163.3C5520,114,5640,82,5760,114.3C5880,147,6000,245,6120,253.2C6240,261,6360,180,6480,179.7C6600,180,6720,261,6840,310.3C6960,359,7080,376,7200,334.8C7320,294,7440,196,7560,147C7680,98,7800,98,7920,114.3C8040,131,8160,163,8280,196C8400,229,8520,261,8580,277.7L8640,294L8640,490L8580,490C8520,490,8400,490,8280,490C8160,490,8040,490,7920,490C7800,490,7680,490,7560,490C7440,490,7320,490,7200,490C7080,490,6960,490,6840,490C6720,490,6600,490,6480,490C6360,490,6240,490,6120,490C6000,490,5880,490,5760,490C5640,490,5520,490,5400,490C5280,490,5160,490,5040,490C4920,490,4800,490,4680,490C4560,490,4440,490,4320,490C4200,490,4080,490,3960,490C3840,490,3720,490,3600,490C3480,490,3360,490,3240,490C3120,490,3000,490,2880,490C2760,490,2640,490,2520,490C2400,490,2280,490,2160,490C2040,490,1920,490,1800,490C1680,490,1560,490,1440,490C1320,490,1200,490,1080,490C960,490,840,490,720,490C600,490,480,490,360,490C240,490,120,490,60,490L0,490Z"/><defs><linearGradient id="sw-gradient-2" x1="0" x2="0" y1="1" y2="0"><stop stop-color="rgba(21, 122, 153, 0.8)" offset="0%"/><stop stop-color="rgba(25, 162, 205, 0.8)" offset="100%"/></linearGradient></defs><path style="transform:translate(0, 100px); opacity:0.8" fill="url(#sw-gradient-2)" d="M0,147L60,130.7C120,114,240,82,360,57.2C480,33,600,16,720,24.5C840,33,960,65,1080,130.7C1200,196,1320,294,1440,294C1560,294,1680,196,1800,163.3C1920,131,2040,163,2160,196C2280,229,2400,261,2520,253.2C2640,245,2760,196,2880,163.3C3000,131,3120,114,3240,155.2C3360,196,3480,294,3600,285.8C3720,278,3840,163,3960,147C4080,131,4200,212,4320,228.7C4440,245,4560,196,4680,155.2C4800,114,4920,82,5040,57.2C5160,33,5280,16,5400,40.8C5520,65,5640,131,5760,163.3C5880,196,6000,196,6120,171.5C6240,147,6360,98,6480,138.8C6600,180,6720,310,6840,318.5C6960,327,7080,212,7200,204.2C7320,196,7440,294,7560,302.2C7680,310,7800,229,7920,220.5C8040,212,8160,278,8280,302.2C8400,327,8520,310,8580,302.2L8640,294L8640,490L8580,490C8520,490,8400,490,8280,490C8160,490,8040,490,7920,490C7800,490,7680,490,7560,490C7440,490,7320,490,7200,490C7080,490,6960,490,6840,490C6720,490,6600,490,6480,490C6360,490,6240,490,6120,490C6000,490,5880,490,5760,490C5640,490,5520,490,5400,490C5280,490,5160,490,5040,490C4920,490,4800,490,4680,490C4560,490,4440,490,4320,490C4200,490,4080,490,3960,490C3840,490,3720,490,3600,490C3480,490,3360,490,3240,490C3120,490,3000,490,2880,490C2760,490,2640,490,2520,490C2400,490,2280,490,2160,490C2040,490,1920,490,1800,490C1680,490,1560,490,1440,490C1320,490,1200,490,1080,490C960,490,840,490,720,490C600,490,480,490,360,490C240,490,120,490,60,490L0,490Z"/></svg>